<?xml version="1.0" standalone="no"?>
<!DOCTYPE svg PUBLIC "-//W3C//DTD SVG 20010904//EN"
 "http://www.w3.org/TR/2001/REC-SVG-20010904/DTD/svg10.dtd">
<svg version="1.0" xmlns="http://www.w3.org/2000/svg"
 width="1080.000000pt" height="1080.000000pt" viewBox="0 0 1080.000000 1080.000000"
 preserveAspectRatio="xMidYMid meet">
<metadata>
Created by potrace 1.14, written by Peter Selinger 2001-2017
</metadata>
<g transform="translate(0.000000,1080.000000) scale(0.100000,-0.100000)"
fill="#000000" stroke="none">
<path d="M4165 9209 c-105 -16 -183 -48 -254 -107 -94 -76 -3381 -3373 -3415
-3424 -57 -88 -80 -167 -79 -283 1 -115 22 -187 79 -273 20 -30 150 -169 290
-309 143 -143 251 -259 248 -265 -4 -7 -2 -8 4 -4 12 7 72 -46 72 -64 0 -5 4
-10 9 -10 17 0 152 -140 146 -151 -4 -5 -3 -9 2 -8 16 4 43 -13 43 -27 0 -8 5
-14 10 -14 13 0 70 -57 70 -70 0 -6 4 -10 10 -10 17 0 111 -100 105 -111 -4
-5 -3 -9 2 -8 16 4 43 -13 43 -27 0 -8 4 -14 9 -14 17 0 192 -180 186 -191 -4
-5 -3 -9 2 -8 16 4 43 -13 43 -27 0 -8 4 -14 10 -14 18 0 271 -261 264 -272
-4 -6 -3 -8 3 -5 11 7 203 -176 203 -193 0 -6 5 -10 11 -10 15 0 39 -26 32
-34 -4 -3 -1 -6 5 -6 18 0 233 -220 227 -231 -4 -5 -3 -9 2 -8 16 4 43 -13 43
-27 0 -8 5 -14 10 -14 13 0 70 -57 70 -70 0 -6 5 -10 10 -10 13 0 150 -138
150 -151 0 -5 4 -9 9 -9 17 0 192 -180 186 -191 -4 -5 -3 -9 2 -8 16 4 43 -13
43 -27 0 -8 5 -14 11 -14 17 0 41 -29 33 -41 -4 -8 -3 -9 4 -5 15 9 235 -211
226 -226 -4 -6 -3 -8 3 -5 11 7 203 -176 203 -193 0 -6 5 -10 10 -10 13 0 70
-57 70 -70 0 -6 5 -10 10 -10 13 0 150 -138 150 -151 0 -5 4 -9 10 -9 5 0 24
-15 43 -32 91 -90 169 -136 265 -158 79 -18 188 -16 257 5 33 10 62 19 65 20
3 0 15 6 28 13 12 7 28 10 34 6 6 -4 8 -3 5 3 -7 12 16 36 26 27 3 -3 11 4 17
16 6 12 14 19 17 17 3 -3 18 10 35 28 19 22 35 32 46 29 12 -4 13 -3 5 3 -9 6
3 24 42 62 30 30 55 58 55 64 0 5 7 6 16 3 8 -3 13 -2 10 3 -7 10 209 226 226
226 7 1 12 6 10 13 -3 16 36 54 49 47 5 -4 8 -1 7 6 -2 7 4 13 12 14 9 0 14 8
12 18 -3 15 9 22 31 18 5 -1 6 3 2 9 -3 5 1 13 9 16 9 3 13 10 10 15 -3 5 -2
9 3 9 13 1 83 67 83 80 0 6 3 10 8 8 4 -2 28 18 54 44 26 26 44 48 40 48 -4 0
5 8 18 17 14 10 29 17 33 15 5 -1 6 2 3 7 -8 12 21 34 34 26 6 -3 7 -11 4 -17
-4 -6 -3 -8 3 -5 13 8 66 -47 56 -58 -5 -4 -3 -5 3 -2 6 3 17 -2 26 -11 8 -9
25 -25 37 -35 12 -10 19 -23 15 -29 -4 -6 -3 -8 3 -5 13 8 36 -17 25 -28 -4
-5 -2 -6 3 -2 6 3 19 -1 30 -9 10 -8 16 -14 12 -14 -7 0 31 -38 73 -73 11 -10
18 -23 14 -29 -4 -7 -3 -8 4 -4 12 7 69 -50 64 -65 -1 -5 2 -8 8 -7 5 2 97
-84 203 -189 107 -106 192 -193 190 -193 -11 0 118 -99 152 -117 54 -27 140
-52 195 -54 25 -1 51 -7 59 -13 11 -8 13 -8 8 0 -6 10 38 19 135 27 9 1 15 4
12 8 -2 3 18 14 44 24 26 10 61 29 78 42 17 12 34 20 39 15 5 -4 5 -2 2 4 -8
14 31 47 45 38 7 -4 8 -3 4 5 -9 13 20 45 33 36 5 -3 13 0 17 6 4 8 3 9 -4 5
-28 -17 -7 8 65 79 49 48 82 74 91 70 11 -4 12 -2 5 7 -7 9 6 27 43 64 29 28
55 50 56 48 2 -1 12 10 23 27 19 27 45 43 29 17 -4 -7 -3 -8 5 -4 6 4 9 11 6
16 -7 11 54 72 66 65 5 -4 6 1 3 9 -4 11 0 16 11 16 9 0 14 -4 10 -9 -3 -5 -1
-12 4 -15 10 -6 9 19 -1 29 -3 3 8 19 24 35 30 31 45 39 32 18 -4 -7 -3 -8 5
-4 6 4 9 11 6 16 -6 10 33 50 49 50 5 0 7 3 3 6 -6 7 52 64 66 64 4 0 6 4 3 9
-8 12 22 23 37 15 9 -5 9 -4 1 5 -9 10 -1 23 33 57 25 24 49 41 54 39 4 -3 11
0 15 6 4 8 3 9 -4 5 -26 -16 -10 10 17 29 17 11 28 21 27 23 -6 5 44 52 54 52
6 0 10 5 10 10 0 6 9 19 19 29 14 14 22 16 31 7 8 -8 10 -7 5 5 -4 10 10 32
40 62 43 45 64 60 49 35 -4 -7 -3 -8 5 -4 6 4 9 11 6 15 -2 5 6 20 19 34 18
20 26 23 36 14 10 -9 11 -9 6 0 -8 15 3 45 15 37 5 -3 9 -1 9 3 0 14 57 72 64
66 3 -4 6 -2 6 3 0 16 40 55 50 49 5 -3 12 0 16 6 4 8 3 9 -4 5 -21 -13 -13 2
18 32 16 16 32 27 35 24 10 -10 35 -11 29 -1 -3 5 -10 7 -15 4 -5 -4 -9 1 -9
10 0 11 5 15 15 11 8 -3 14 -2 14 2 -4 22 3 33 16 29 8 -4 17 -1 21 5 4 7 3 8
-4 4 -25 -15 -10 6 35 49 30 30 52 44 62 40 12 -5 13 -3 5 5 -9 9 -7 17 7 31
10 10 24 19 29 19 6 0 10 4 10 10 0 10 47 60 52 54 2 -1 12 10 23 27 19 27 45
43 29 17 -4 -7 -3 -8 5 -4 6 4 9 11 6 16 -7 11 54 72 66 65 5 -4 6 1 3 9 -4
11 0 16 11 16 9 0 14 -4 10 -9 -3 -5 -1 -12 4 -15 10 -6 9 19 -1 29 -3 3 8 19
24 35 30 31 45 39 32 18 -4 -7 -3 -8 5 -4 6 4 9 11 6 16 -6 9 102 120 117 120
5 0 7 4 4 9 -8 12 22 23 37 15 9 -5 9 -4 1 6 -9 9 -7 17 7 31 11 11 24 17 29
14 6 -3 7 1 4 9 -6 14 5 21 28 17 4 0 5 6 2 14 -4 10 0 15 11 15 9 0 14 -4 10
-9 -3 -5 -1 -12 4 -15 10 -6 9 19 -1 29 -3 3 8 19 24 35 30 31 45 39 32 18 -4
-7 -3 -8 5 -4 6 4 9 11 6 16 -6 9 102 120 117 120 5 0 7 4 4 9 -8 12 22 23 37
15 9 -5 9 -4 0 6 -9 10 -6 18 14 36 14 13 29 21 34 18 5 -3 6 3 2 12 -4 12 -3
15 5 10 7 -4 12 -3 12 2 0 20 73 83 89 77 12 -5 13 -3 5 5 -9 9 -7 17 7 31 10
10 24 19 29 19 6 0 10 4 10 10 0 10 47 60 52 54 2 -1 12 10 23 27 19 27 45 43
29 17 -4 -7 -3 -8 5 -4 6 4 9 11 6 16 -6 10 75 91 85 85 5 -3 12 0 16 6 4 8 3
9 -4 5 -26 -16 -10 10 17 29 17 11 28 21 27 23 -8 8 46 52 56 46 6 -4 8 -3 5
3 -8 12 111 135 123 128 5 -3 12 0 16 6 4 8 3 9 -4 5 -7 -4 -12 -2 -12 3 0 10
14 15 33 12 5 -1 6 3 3 7 -3 5 5 21 18 35 18 19 26 23 35 14 9 -9 11 -8 6 4
-4 11 16 37 60 82 36 37 70 67 76 67 5 0 9 4 9 10 0 12 47 59 53 53 3 -2 8 5
12 17 5 17 9 19 21 9 12 -9 13 -9 9 3 -3 8 4 25 16 39 12 13 33 39 46 56 14
18 29 31 33 28 5 -3 6 5 2 17 -4 17 -2 20 11 15 11 -4 14 -2 11 8 -3 7 5 44
19 82 20 58 24 86 22 164 -2 52 -4 94 -5 94 -1 0 -3 7 -5 15 -7 32 -36 106
-51 128 -8 12 -12 28 -8 35 4 7 4 9 0 5 -7 -6 -46 26 -46 38 0 3 -113 118
-250 255 -138 138 -248 254 -245 260 4 5 3 9 -2 8 -16 -4 -43 13 -43 27 0 8
-5 14 -11 14 -17 0 -41 29 -33 41 4 8 3 9 -4 5 -15 -9 -235 211 -226 226 4 6
3 8 -3 5 -11 -7 -203 176 -203 193 0 6 -4 10 -9 10 -18 0 -432 421 -425 432 4
6 3 8 -3 5 -11 -7 -203 176 -203 193 0 6 -4 10 -9 10 -17 0 -272 260 -266 271
4 5 3 9 -2 8 -16 -4 -43 13 -43 27 0 8 -5 14 -10 14 -13 0 -70 57 -70 70 0 6
-5 10 -10 10 -13 0 -150 138 -150 151 0 5 -4 9 -9 9 -17 0 -192 180 -186 191
4 5 3 9 -2 8 -16 -4 -43 13 -43 27 0 8 -4 14 -10 14 -18 0 -271 261 -264 272
4 6 3 8 -4 5 -5 -4 -146 128 -314 295 -348 346 -338 338 -415 376 -169 85
-377 70 -523 -37 -19 -14 -178 -169 -354 -343 -175 -175 -323 -315 -329 -311
-5 3 -7 1 -4 -4 6 -9 -177 -203 -192 -203 -14 0 -61 52 -55 61 3 5 1 8 -4 7
-11 -4 -92 68 -92 82 0 5 -4 10 -8 10 -7 0 -74 63 -108 102 -7 7 -55 55 -108
107 -53 51 -96 98 -96 104 0 6 -2 8 -5 6 -2 -3 -90 79 -194 183 -104 103 -194
188 -200 188 -6 0 -11 4 -11 8 0 13 -90 58 -150 75 -70 20 -141 25 -205 16z"/>
<path d="M10350 4976 c0 -2 8 -10 18 -17 15 -13 16 -12 3 4 -13 16 -21 21 -21
13z"/>
<path d="M10055 4819 c-3 -4 2 -6 10 -5 21 3 28 13 10 13 -9 0 -18 -4 -20 -8z"/>
<path d="M10014 4782 c4 -3 14 -7 22 -8 9 -1 13 0 10 4 -4 3 -14 7 -22 8 -9 1
-13 0 -10 -4z"/>
<path d="M9995 4729 c-4 -6 -5 -12 -2 -15 2 -3 7 2 10 11 7 17 1 20 -8 4z"/>
<path d="M9855 4620 c-3 -5 -1 -10 4 -10 6 0 11 5 11 10 0 6 -2 10 -4 10 -3 0
-8 -4 -11 -10z"/>
<path d="M9835 4540 c-3 -5 -1 -10 4 -10 6 0 11 5 11 10 0 6 -2 10 -4 10 -3 0
-8 -4 -11 -10z"/>
<path d="M9834 4480 c0 -13 4 -16 10 -10 7 7 7 13 0 20 -6 6 -10 3 -10 -10z"/>
<path d="M9790 4461 c0 -6 4 -13 10 -16 6 -3 7 1 4 9 -7 18 -14 21 -14 7z"/>
<path d="M9809 4243 c-13 -16 -12 -17 4 -4 16 13 21 21 13 21 -2 0 -10 -8 -17
-17z"/>
<path d="M9493 4209 c-2 -23 3 -25 10 -4 4 8 3 16 -1 19 -4 3 -9 -4 -9 -15z"/>
<path d="M9415 4141 c-3 -5 -2 -12 3 -15 5 -3 9 1 9 9 0 17 -3 19 -12 6z"/>
<path d="M9336 4102 c-2 -4 -1 -14 4 -22 7 -11 9 -9 7 8 -1 24 -3 26 -11 14z"/>
<path d="M9253 3969 c-2 -23 3 -25 10 -4 4 8 3 16 -1 19 -4 3 -9 -4 -9 -15z"/>
<path d="M9173 3935 c0 -8 4 -12 9 -9 5 3 6 10 3 15 -9 13 -12 11 -12 -6z"/>
<path d="M8950 3717 c0 -2 6 -10 14 -16 11 -9 16 -9 22 1 4 7 4 10 -1 6 -4 -4
-14 -3 -22 3 -7 6 -13 9 -13 6z"/>
<path d="M8933 3649 c-2 -23 3 -25 10 -4 4 8 3 16 -1 19 -4 3 -9 -4 -9 -15z"/>
<path d="M8853 3615 c0 -8 4 -12 9 -9 5 3 6 10 3 15 -9 13 -12 11 -12 -6z"/>
<path d="M8993 3595 c0 -8 4 -12 9 -9 5 3 6 10 3 15 -9 13 -12 11 -12 -6z"/>
<path d="M8699 3428 c-5 -18 -6 -38 -1 -34 7 8 12 36 6 36 -2 0 -4 -1 -5 -2z"/>
<path d="M8630 3399 c0 -5 5 -7 10 -4 6 3 10 8 10 11 0 2 -4 4 -10 4 -5 0 -10
-5 -10 -11z"/>
<path d="M8835 3329 c-4 -6 -5 -12 -2 -15 2 -3 7 2 10 11 7 17 1 20 -8 4z"/>
<path d="M8749 3243 c-13 -16 -12 -17 4 -4 16 13 21 21 13 21 -2 0 -10 -8 -17
-17z"/>
<path d="M8450 3159 c0 -5 5 -7 10 -4 6 3 10 8 10 11 0 2 -4 4 -10 4 -5 0 -10
-5 -10 -11z"/>
<path d="M8505 3160 c-3 -6 1 -7 9 -4 18 7 21 14 7 14 -6 0 -13 -4 -16 -10z"/>
<path d="M8370 3140 c0 -5 5 -10 11 -10 5 0 7 5 4 10 -3 6 -8 10 -11 10 -2 0
-4 -4 -4 -10z"/>
<path d="M8715 3000 c3 -5 8 -10 11 -10 2 0 4 5 4 10 0 6 -5 10 -11 10 -5 0
-7 -4 -4 -10z"/>
<path d="M8136 2898 c3 -4 11 -5 19 -1 21 7 19 12 -4 10 -11 0 -18 -5 -15 -9z"/>
<path d="M8096 2818 c3 -4 11 -5 19 -1 21 7 19 12 -4 10 -11 0 -18 -5 -15 -9z"/>
<path d="M7975 2740 c3 -5 8 -10 11 -10 2 0 4 5 4 10 0 6 -5 10 -11 10 -5 0
-7 -4 -4 -10z"/>
<path d="M7935 2659 c-3 -4 2 -6 10 -5 21 3 28 13 10 13 -9 0 -18 -4 -20 -8z"/>
<path d="M7955 2609 c-4 -6 -5 -12 -2 -15 2 -3 7 2 10 11 7 17 1 20 -8 4z"/>
<path d="M5426 2482 c-3 -5 1 -9 9 -9 8 0 12 4 9 9 -3 4 -7 8 -9 8 -2 0 -6 -4
-9 -8z"/>
<path d="M7710 2486 c0 -2 7 -7 16 -10 8 -3 12 -2 9 4 -6 10 -25 14 -25 6z"/>
<path d="M5450 2420 c0 -5 5 -10 11 -10 5 0 7 5 4 10 -3 6 -8 10 -11 10 -2 0
-4 -4 -4 -10z"/>
<path d="M5379 2388 c-5 -18 -6 -38 -1 -34 7 8 12 36 6 36 -2 0 -4 -1 -5 -2z"/>
<path d="M7653 2369 c-2 -23 3 -25 10 -4 4 8 3 16 -1 19 -4 3 -9 -4 -9 -15z"/>
<path d="M5240 2340 c-12 -7 -10 -9 7 -7 12 0 19 5 17 9 -6 10 -6 10 -24 -2z"/>
<path d="M7573 2335 c0 -8 4 -12 9 -9 5 3 6 10 3 15 -9 13 -12 11 -12 -6z"/>
<path d="M7875 2329 c-4 -6 -5 -12 -2 -15 2 -3 7 2 10 11 7 17 1 20 -8 4z"/>
<path d="M5215 2299 c-3 -4 2 -6 10 -5 21 3 28 13 10 13 -9 0 -18 -4 -20 -8z"/>
<path d="M5155 2259 c-3 -4 2 -6 10 -5 21 3 28 13 10 13 -9 0 -18 -4 -20 -8z"/>
<path d="M5310 2241 c0 -6 4 -13 10 -16 6 -3 7 1 4 9 -7 18 -14 21 -14 7z"/>
<path d="M5095 2181 c-3 -5 -2 -12 3 -15 5 -3 9 1 9 9 0 17 -3 19 -12 6z"/>
<path d="M5067 2159 c7 -7 15 -10 18 -7 3 3 -2 9 -12 12 -14 6 -15 5 -6 -5z"/>
<path d="M5196 2153 c-6 -14 -5 -15 5 -6 7 7 10 15 7 18 -3 3 -9 -2 -12 -12z"/>
<path d="M7415 2141 c-3 -5 -2 -12 3 -15 5 -3 9 1 9 9 0 17 -3 19 -12 6z"/>
<path d="M7350 2119 c0 -5 5 -7 10 -4 6 3 10 8 10 11 0 2 -4 4 -10 4 -5 0 -10
-5 -10 -11z"/>
<path d="M7450 2126 c0 -2 7 -7 16 -10 8 -3 12 -2 9 4 -6 10 -25 14 -25 6z"/>
<path d="M7376 2082 c-3 -5 1 -9 9 -9 8 0 12 4 9 9 -3 4 -7 8 -9 8 -2 0 -6 -4
-9 -8z"/>
<path d="M4975 2059 c-3 -4 2 -6 10 -5 21 3 28 13 10 13 -9 0 -18 -4 -20 -8z"/>
<path d="M4914 2022 c4 -3 14 -7 22 -8 9 -1 13 0 10 4 -4 3 -14 7 -22 8 -9 1
-13 0 -10 -4z"/>
<path d="M4966 2002 c-3 -5 1 -9 9 -9 8 0 12 4 9 9 -3 4 -7 8 -9 8 -2 0 -6 -4
-9 -8z"/>
<path d="M7226 2002 c-3 -5 1 -9 9 -9 8 0 12 4 9 9 -3 4 -7 8 -9 8 -2 0 -6 -4
-9 -8z"/>
<path d="M7202 1938 c-7 -7 -12 -17 -12 -22 0 -6 5 -3 11 7 6 9 15 14 21 11 7
-4 8 -2 4 4 -9 15 -9 15 -24 0z"/>
<path d="M7139 1908 c-5 -18 -6 -38 -1 -34 7 8 12 36 6 36 -2 0 -4 -1 -5 -2z"/>
<path d="M7270 1839 c0 -5 5 -7 10 -4 6 3 10 8 10 11 0 2 -4 4 -10 4 -5 0 -10
-5 -10 -11z"/>
<path d="M7075 1820 c-3 -5 -1 -10 4 -10 6 0 11 5 11 10 0 6 -2 10 -4 10 -3 0
-8 -4 -11 -10z"/>
<path d="M7035 1811 c-3 -5 -2 -12 3 -15 5 -3 9 1 9 9 0 17 -3 19 -12 6z"/>
<path d="M6990 1720 c0 -5 5 -10 11 -10 5 0 7 5 4 10 -3 6 -8 10 -11 10 -2 0
-4 -4 -4 -10z"/>
</g>
</svg>
